HIERARCHY
ROOT hip
{
  OFFSET 0 0 0
  CHANNELS 6 Xposition Yposition Zposition Zrotation Yrotation Xrotation
  JOINT abdomen
  {
    OFFSET 0 20.6881 -0.73152
    CHANNELS 3 Zrotation Xrotation Yrotation
    JOINT chest
    {
      OFFSET 0 11.7043 -0.48768
      CHANNELS 3 Zrotation Xrotation Yrotation
      JOINT neck
      {
        OFFSET 0 22.1894 -2.19456
        CHANNELS 3 Zrotation Xrotation Yrotation
        JOINT head
        {
          OFFSET -0.24384 7.07133 1.2192
          CHANNELS 3 Zrotation Xrotation Yrotation
          JOINT leftEye
          {
            OFFSET 4.14528 8.04674 8.04672
            CHANNELS 3 Zrotation Xrotation Yrotation
            End Site
            {
              OFFSET 1 0 0
            }
          }
          JOINT rightEye
          {
            OFFSET -3.6576 8.04674 8.04672
            CHANNELS 3 Zrotation Xrotation Yrotation
            End Site
            {
              OFFSET 1 0 0
            }
          }
        }
      }
      JOINT rCollar
      {
        OFFSET -2.68224 19.2634 -4.8768
        CHANNELS 3 Zrotation Xrotation Yrotation
        JOINT rShldr
        {
          OFFSET -8.77824 -1.95073 1.46304
          CHANNELS 3 Zrotation Xrotation Yrotation
          JOINT rForeArm
          {
            OFFSET -28.1742 -1.7115 0.48768
            CHANNELS 3 Zrotation Xrotation Yrotation
            JOINT rHand
            {
              OFFSET -22.5879 0.773209 7.07136
              CHANNELS 3 Zrotation Xrotation Yrotation
              JOINT rThumb1
              {
                OFFSET -1.2192 -0.487915 3.41376
                CHANNELS 3 Zrotation Xrotation Yrotation
                JOINT rThumb2
                {
                  OFFSET -3.37035 -0.52449 3.41376
                  CHANNELS 3 Zrotation Xrotation Yrotation
                  End Site
                  {
                    OFFSET -1.78271 -1.18214 1.43049
                  }
                }
              }
              JOINT rIndex1
              {
                OFFSET -7.75947 0.938293 5.60832
                CHANNELS 3 Zrotation Xrotation Yrotation
                JOINT rIndex2
                {
                  OFFSET -2.54057 -0.884171 1.56538
                  CHANNELS 3 Zrotation Xrotation Yrotation
                  End Site
                  {
                    OFFSET -1.62519 -0.234802 1.16502
                  }
                }
              }
              JOINT rMid1
              {
                OFFSET -8.24714 1.18213 3.41376
                CHANNELS 3 Zrotation Xrotation Yrotation
                JOINT rMid2
                {
                  OFFSET -3.10165 -0.590103 1.0647
                  CHANNELS 3 Zrotation Xrotation Yrotation
                  End Site
                  {
                    OFFSET -2.48547 -0.328903 0.83742
                  }
                }
              }
              JOINT rRing1
              {
                OFFSET -8.82822 0.546677 1.51678
                CHANNELS 3 Zrotation Xrotation Yrotation
                JOINT rRing2
                {
                  OFFSET -2.60934 -0.819778 -0.0198488
                  CHANNELS 3 Zrotation Xrotation Yrotation
                  End Site
                  {
                    OFFSET -2.33842 -0.294052 0.168128
                  }
                }
              }
              JOINT rPinky1
              {
                OFFSET -8.27202 -0.0477905 -0.4584
                CHANNELS 3 Zrotation Xrotation Yrotation
                JOINT rPinky2
                {
                  OFFSET -1.82734 -0.647385 -0.700984
                  CHANNELS 3 Zrotation Xrotation Yrotation
                  End Site
                  {
                    OFFSET -1.69225 -0.51767 -0.607171
                  }
                }
              }
            }
          }
        }
      }
      JOINT lCollar
      {
        OFFSET 2.68224 19.2634 -4.8768
        CHANNELS 3 Zrotation Xrotation Yrotation
        JOINT lShldr
        {
          OFFSET 8.77824 -1.95073 1.46304
          CHANNELS 3 Zrotation Xrotation Yrotation
          JOINT lForeArm
          {
            OFFSET 28.1742 -1.7115 0.48768
            CHANNELS 3 Zrotation Xrotation Yrotation
            JOINT lHand
            {
              OFFSET 22.5879 0.773209 7.07136
              CHANNELS 3 Zrotation Xrotation Yrotation
              JOINT lThumb1
              {
                OFFSET 1.2192 -0.487915 3.41376
                CHANNELS 3 Zrotation Xrotation Yrotation
                JOINT lThumb2
                {
                  OFFSET 3.37035 -0.52449 3.41376
                  CHANNELS 3 Zrotation Xrotation Yrotation
                  End Site
                  {
                    OFFSET 1.78271 -1.18214 1.43049
                  }
                }
              }
              JOINT lIndex1
              {
                OFFSET 7.75947 0.938293 5.60832
                CHANNELS 3 Zrotation Xrotation Yrotation
                JOINT lIndex2
                {
                  OFFSET 2.54057 -0.884171 1.56538
                  CHANNELS 3 Zrotation Xrotation Yrotation
                  End Site
                  {
                    OFFSET 1.62519 -0.234802 1.16502
                  }
                }
              }
              JOINT lMid1
              {
                OFFSET 8.24714 1.18213 3.41376
                CHANNELS 3 Zrotation Xrotation Yrotation
                JOINT lMid2
                {
                  OFFSET 3.10165 -0.590103 1.0647
                  CHANNELS 3 Zrotation Xrotation Yrotation
                  End Site
                  {
                    OFFSET 2.48547 -0.328903 0.83742
                  }
                }
              }
              JOINT lRing1
              {
                OFFSET 8.82822 0.546677 1.51678
                CHANNELS 3 Zrotation Xrotation Yrotation
                JOINT lRing2
                {
                  OFFSET 2.60934 -0.819778 -0.0198488
                  CHANNELS 3 Zrotation Xrotation Yrotation
                  End Site
                  {
                    OFFSET 2.33842 -0.294052 0.168128
                  }
                }
              }
              JOINT lPinky1
              {
                OFFSET 8.27202 -0.0477905 -0.4584
                CHANNELS 3 Zrotation Xrotation Yrotation
                JOINT lPinky2
                {
                  OFFSET 1.82734 -0.647385 -0.700984
                  CHANNELS 3 Zrotation Xrotation Yrotation
                  End Site
                  {
                    OFFSET 1.69225 -0.51767 -0.607171
                  }
                }
              }
            }
          }
        }
      }
    }
  }
  JOINT rButtock
  {
    OFFSET -8.77824 4.35084 1.2192
    CHANNELS 3 Zrotation Xrotation Yrotation
    JOINT rThigh
    {
      OFFSET 0 -1.70687 -2.19456
      CHANNELS 3 Zrotation Xrotation Yrotation
      JOINT rShin
      {
        OFFSET 0 -36.8199 0.73152
        CHANNELS 3 Zrotation Xrotation Yrotation
        JOINT rFoot
        {
          OFFSET 0.73152 -45.1104 -5.12064
          CHANNELS 3 Zrotation Xrotation Yrotation
          End Site
          {
            OFFSET -1.1221 -3.69964 12.103
          }
        }
      }
    }
  }
  JOINT lButtock
  {
    OFFSET 8.77824 4.35084 1.2192
    CHANNELS 3 Zrotation Xrotation Yrotation
    JOINT lThigh
    {
      OFFSET 0 -1.70687 -2.19456
      CHANNELS 3 Zrotation Xrotation Yrotation
      JOINT lShin
      {
        OFFSET 0 -36.8199 0.73152
        CHANNELS 3 Zrotation Xrotation Yrotation
        JOINT lFoot
        {
          OFFSET -0.73152 -45.1104 -5.12064
          CHANNELS 3 Zrotation Xrotation Yrotation
          End Site
          {
            OFFSET 1.1221 -3.69964 12.103
          }
        }
      }
    }
  }
}
MOTION
Frames:	9
Frame Time:	0.03333
0.0 0.0 0.0 0.0 0.0 0.0 0.0 0.0 0.0 0.0 0.0 0.0 0.0 0.0 0.0 0.0 0.0 0.0 0.0 0.0 0.0 0.0 0.0 0.0 0.0 0.0 0.0 0.0 0.0 0.0 0.0 0.0 0.0 0.0 0.0 0.0 0.0 0.0 0.0 0.0 0.0 0.0 0.0 0.0 0.0 0.0 0.0 0.0 0.0 0.0 0.0 0.0 0.0 0.0 0.0 0.0 0.0 0.0 0.0 0.0 0.0 0.0 0.0 0.0 0.0 0.0 0.0 0.0 0.0 0.0 0.0 0.0 0.0 0.0 0.0 0.0 0.0 0.0 0.0 0.0 0.0 0.0 0.0 0.0 0.0 0.0 0.0 0.0 0.0 0.0 0.0 0.0 0.0 0.0 0.0 0.0 0.0 0.0 0.0 0.0 0.0 0.0 0.0 0.0 0.0 0.0 0.0 0.0 0.0 0.0 0.0 0.0 0.0 0.0 0.0 0.0 0.0 0.0 0.0 0.0 0.0 0.0 0.0 0.0 0.0 0.0 0.0 0.0 0.0 0.0 0.0 0.0
1.5488 56.9281 -0.1392 -16.026912 -59.491408 26.771375 -0.574126 14.716154 -177.74103 -8.35653 7.137188 176.24138 -14.702151 33.349132 -82.313028 53.440877 9.412129 25.868015 -0.000765 0.0 -0.00288 -0.000961 -0.0 0.002058 -155.416727 -2.951371 161.718867 28.333007 -76.017366 62.948112 -176.265923 -65.901606 -73.130956 -8.390808 21.491577 0.411731 -168.136504 -5.815155 89.871891 -68.692605 -0.543764 21.274953 10.211676 -18.050661 -4.563346 -11.394547 29.504244 10.239693 -36.036848 51.723247 29.831502 -171.964467 -31.377172 143.988374 0.000698 -0.018316 -0.006962 -155.447752 -1.618903 172.042045 -18.36151 -31.548453 -17.575548 -146.356637 10.467103 -143.206366 155.417504 -2.951513 -161.718248 53.590185 -0.863648 -0.710731 170.32962 -10.874881 75.506693 7.343351 -11.469925 4.021687 0.490214 0.48528 -0.077018 130.466752 -27.660352 -115.193018 28.900172 31.616936 -21.337063 -68.813966 -57.730424 -24.153039 -2.100139 -6.305474 1.080634 -80.533986 -78.003496 -52.093631 145.099225 -1.522052 178.64989 150.210929 -35.127077 173.024178 152.347399 37.91068 147.689376 162.697436 55.764751 146.865377 0.005122 3.5e-05 0.005122 -55.654817 -52.759778 -0.0 70.952022 41.543179 -167.573446 11.997133 0.995689 97.320609 0.001806 -0.000927 0.000903 56.704554 -47.097831 -154.641795 76.524128 -72.41217 -51.746349 93.199336 -45.751954 0.86448
2.0618000000000003 58.1685 -0.0218 -15.642523 -62.981669 25.826355 -0.799755 14.599774 -176.830225 -7.937559 6.828381 174.740492 8.731067 34.019899 109.395407 -49.612855 21.826293 -153.577878 0.000253 0.0 5.9e-05 0.000253 0.0 5.9e-05 -48.788618 -86.434705 -70.451963 -159.902287 -18.91379 -141.645212 21.664324 43.534797 -155.401474 176.171295 -3.954368 144.4824 -168.13684 -5.815217 89.870801 -1.274832 -51.576719 9.819047 -4.705882 7.224439 2.853807 -79.99222 48.092852 61.728559 -160.672277 -6.667892 143.245574 -163.776417 -6.246811 143.112469 0.004504 1.772174 0.557765 9.614495 7.243969 0.881939 9.602035 31.055657 8.340534 -147.819772 11.319807 -143.434928 -2.459575 -18.216374 3.669159 100.660911 -21.626105 171.166175 -175.244609 -21.203143 79.269353 12.016526 3.094553 2.052855 80.966054 38.736153 -44.498412 -153.778536 -51.924109 -67.102157 -19.56874 -35.040259 5.986189 -25.730139 -15.982387 2.90231 160.826062 -7.141847 -143.316287 7.498297 26.111296 -6.448252 -0.000586 -0.018627 0.005082 -6.148183 33.722938 -5.590487 24.988179 -37.658593 24.06255 147.218473 13.590702 143.848189 179.999996 75.749677 3e-06 150.203059 8.601489 -76.707476 -72.944361 12.559137 127.472405 121.491557 -65.353594 10.612927 -0.005265 0.00089 -0.002632 51.659941 -45.08167 -119.250529 -83.323711 -64.735212 -176.723791 -97.583586 48.530111 -5.508164
2.0795 59.166700000000006 -0.2012 -14.435667 -66.661608 24.058789 -0.283662 14.744777 -158.76884 -4.887298 8.850649 155.89074 2.771538 40.491647 161.220003 -26.682158 55.209435 160.427437 0.001915 -0.0 -0.002754 -0.003813 0.0 -0.002879 4.210094 -43.443097 -8.382919 -143.697489 10.320971 -152.800451 119.231535 -49.866131 -120.98944 -35.95032 61.290059 19.501599 -169.320486 -7.000473 89.922198 -77.638816 4.581013 26.399641 -138.494826 4.896411 114.864196 106.726775 -70.448083 54.632325 -173.037632 -44.087847 144.930494 -168.405509 -19.913472 143.936328 -145.122605 1.976235 -179.747197 11.465629 21.703246 -6.502963 -75.779252 -51.667656 -74.249382 -85.288529 -52.841912 -85.735782 155.577966 -3.999438 -161.941492 134.258621 -85.716336 86.139031 -59.248708 -4.762373 -152.884254 61.485131 60.6825 -40.572367 2.925473 2.862189 -0.521316 8.550091 9.412434 -9.030868 -146.679683 -73.258077 -91.635071 -131.115206 -67.81031 -69.638584 8.417339 20.880183 -5.645977 42.023288 58.556293 -36.138802 71.924672 72.973714 -89.77204 -5.870438 1.80019 4.243465 17.347091 -30.441362 16.589561 -3.062897 -0.025308 0.174135 0.001517 -0.001329 -0.0 -55.746719 -48.962811 42.930036 73.392962 0.689939 -89.138652 144.471593 -42.32509 -6.69716 -0.004149 0.000496 -0.004149 43.61117 -43.218687 144.350209 81.832848 -13.729386 178.502453 -85.098802 86.622672 -179.753066
1.6705999999999999 59.9306 -0.6185999999999999 -15.719353 -71.064373 25.285006 -0.838343 13.584676 -177.648888 -8.111307 6.354281 175.003782 -14.212033 35.326988 -98.619682 53.294963 21.65222 39.407333 0.001512 -0.0 -1.1e-05 -0.004212 0.0 -0.000116 -159.221035 -48.028457 170.41519 -30.696528 -9.644057 -16.244179 -111.069295 48.085237 -125.368491 5.219592 -21.220161 0.501303 -10.083 9.553837 2.367503 -134.076722 -35.694721 112.236345 12.215975 -21.784839 -5.120823 -64.230393 49.163112 51.366816 -36.036828 51.722924 29.832383 -85.811409 64.147849 77.838791 -72.352138 72.975441 90.217767 -61.258665 -82.195045 -78.255137 -152.201111 37.330204 -147.58199 -21.692015 -36.796541 -22.759081 142.973145 39.431524 -147.389943 -70.727206 -50.258881 -111.895737 9.463608 -40.623731 -95.427596 5.785351 -12.919538 3.915782 -77.031392 -49.316591 -29.313351 55.868675 31.633369 -19.043319 -10.748219 -19.04777 4.72351 175.757469 -34.961551 -106.863609 125.641934 49.838604 -115.272597 155.24005 16.661901 -139.353199 145.100231 -1.522831 178.649264 156.135546 63.717183 -172.35051 146.183924 15.332811 142.710722 153.43545 29.722577 145.079672 -0.0 -4.2e-05 -0.000445 -53.704963 -47.587214 41.471753 71.304543 7.456348 -115.64267 107.797969 -3.175271 -31.671053 0.000572 -4.2e-05 -0.0 41.072561 -40.538315 -180.0 62.937672 -54.862389 -127.130475 -48.304848 -50.256001 18.735099
1.1863000000000001 60.38249999999999 -1.0684 -18.902946 -76.244944 28.298815 -1.362477 12.580368 -173.768133 -6.92544 6.58049 171.542654 -12.776549 37.047985 -111.963104 51.039671 31.254043 50.48639 0.001893 0.0 0.002164 0.001893 0.0 0.002164 3.198923 -25.92389 -5.090323 161.264589 74.507771 -114.909103 92.142901 85.240144 131.711885 174.091469 -12.266919 143.881348 4.531188 -4.513962 -0.521475 -10.57355 10.985399 6.255803 14.585554 -26.169524 -5.606852 -178.522196 -38.865766 105.653694 -0.057792 0.167979 0.030711 -0.791289 11.299867 1.880241 -145.118298 0.267174 -179.213643 -138.835607 -60.487518 -160.889999 -145.498001 13.104296 -142.110395 -25.720725 -40.239129 -27.03221 -3.191496 -25.838943 5.074122 -75.553312 30.847924 14.65145 101.215053 -30.893062 -72.929806 -150.19721 -70.124871 -128.198761 1.846676 1.813498 -0.313255 37.198637 25.582731 -34.104685 -0.531465 -0.867489 0.296712 -87.404222 -60.113109 -35.906685 160.672407 -6.667891 -143.245497 172.309975 -31.361439 -143.655865 145.118006 0.267487 179.212956 151.398963 -30.391227 174.193919 1.203928 -3.047437 1.11623 146.851411 10.300489 143.366512 0.0 -0.001182 0.001299 -52.23308 -47.19 40.985603 78.600432 3.431087 88.839535 -164.558483 28.049114 176.726745 179.983963 75.749009 0.010973 -144.977667 29.751773 -18.521557 4.677121 73.808788 49.976621 -87.650956 10.150179 -8.118164
0.4681 60.6557 -1.7718999999999998 -23.819246 -81.840238 33.079974 -2.610168 16.592728 0.641559 7.611323 -10.541687 -2.165908 -8.640537 21.5241 -15.081955 23.416324 -34.808145 -22.910678 0.002683 -0.0 -0.00401 0.002683 -0.0 -0.00401 -142.973811 39.431463 147.389634 179.381665 12.816698 135.233829 -109.351311 -45.483486 91.667743 140.713998 -62.772916 121.014328 -2.608682 2.554462 0.457457 -37.156227 25.32586 34.398752 -90.224961 41.071353 75.796685 5.446351 1.072251 -5.078605 -156.902883 4.412769 141.207084 -163.583786 -5.782906 143.073232 -72.755729 -72.144283 -89.771732 -79.221794 83.187168 97.068832 -145.170923 12.068001 -141.82314 11.341212 26.242283 4.025809 158.467894 -30.055436 -166.920325 -125.452387 34.060553 154.833984 -171.589615 -22.580673 -35.018328 169.181846 12.47166 -139.937366 173.770889 -11.439893 -89.891096 -9.883444 -60.150861 -11.782696 -37.215613 -57.917831 0.641497 178.725201 -43.707448 -106.629004 169.090025 -33.247543 -145.373668 164.132345 -7.028764 -143.203889 0.000162 -0.060827 0.019236 -9.57792 9.238728 -1.161146 -29.947685 82.261424 -7.9226 22.953222 -38.391252 23.066596 0.002217 0.000756 0.001109 -52.769898 -49.487044 120.014935 31.522253 -73.543358 1.955217 94.353025 51.443231 -163.929489 179.99592 75.751682 0.0036 -144.524674 34.954583 -21.594271 -40.739529 70.010762 -61.856288 156.077431 -14.789611 -144.76792
-0.3888 61.1012 -2.78 -49.813174 -87.027882 58.74267 -1.095782 13.986497 -87.188479 8.400543 4.433338 83.842865 -12.719282 36.570836 -120.611401 45.249773 37.443813 65.27719 -0.001047 -0.0 0.000477 -0.001047 -0.0 0.000477 -158.468211 -30.055673 166.919379 93.880038 87.130208 -119.559624 171.447321 -42.275365 34.698121 175.004373 -9.804139 144.009202 174.05449 -22.871124 88.063643 151.790305 -50.872213 107.80366 29.101035 -49.273868 -4.261522 -165.680104 -27.384081 111.53739 -169.089768 -33.247421 145.374613 -42.543803 58.280825 36.546593 -0.00446 -0.560452 -0.175443 9.752047 -62.548004 -9.185495 -117.241823 -36.64414 -115.186785 -152.263373 29.744001 -145.634628 -0.133226 -0.807177 0.1783 9.736367 78.563423 -84.520257 -62.596632 13.904988 -140.797581 80.603793 63.347025 -58.884889 -12.71297 -12.674144 0.552349 -14.443635 -37.866621 21.920166 131.827562 14.059437 -110.40883 175.10719 -34.1964 -116.369024 125.6437 49.839818 -115.273989 153.818948 19.931012 -138.462749 145.117679 0.185106 179.187197 145.051334 -50.808061 167.339828 46.801073 -48.626024 45.558047 -16.581166 43.790554 -7.909411 3e-06 0.000108 -1e-06 -49.228307 -51.0778 -134.662923 -75.099591 0.748744 -81.110557 -24.236858 11.225125 173.421361 5e-06 0.000108 -0.0 30.074601 -25.849584 14.745525 -14.714995 64.803125 24.247189 32.526856 -4.719678 13.568162
-1.3273 61.5508 -3.925 -155.245895 -86.275754 163.513581 -4.037424 15.846905 0.942111 6.639659 -10.213609 -2.176903 2.641302 37.634196 155.5944 -28.539889 48.620513 178.100777 -0.0023 -0.0 0.003274 0.003545 -0.0 -0.000993 -9.650903 34.836388 11.198459 -16.612884 55.660202 68.399014 -171.069573 -69.207946 -76.127794 -7.693144 17.725642 -0.06552 -178.520061 -16.063945 89.475789 -53.946574 -7.804606 8.678667 -151.352464 -17.158066 121.134395 -163.802904 -20.778539 119.499667 -0.057461 0.167943 0.031695 -168.815354 -21.906209 144.330208 -72.757676 -72.144003 -89.771847 14.727317 0.856725 -4.476524 -8.190809 -17.576024 -7.729066 -8.398245 -23.990162 -10.162189 80.166561 68.371178 -83.260852 13.098072 2.1644 -70.818922 -170.349107 -83.765789 89.261265 9.622119 -4.758057 3.272526 176.927167 -14.532651 -89.658934 -136.755987 -55.803545 -98.287002 19.125741 24.073031 -13.344428 179.807484 -33.660626 -107.166065 0.968466 2.779774 -0.552968 -29.362807 -60.224477 -6.393718 0.007422 3.559321 -1.117677 -10.045702 -0.068209 0.080077 145.543078 13.245221 142.148203 148.285332 13.786978 142.169188 -0.000293 -0.000113 0.000377 -45.494124 -50.629809 -38.762987 21.979763 62.452995 71.382618 -133.517629 57.471882 68.561439 -0.000293 -0.000113 0.000377 28.70774 -22.191946 -24.426601 -71.501287 35.170719 -49.699053 155.831211 -0.385518 -166.914505
